<svg xmlns="http://www.w3.org/2000/svg" viewBox="0 0 610 610"><defs><style>.cls-1{fill:#e8ebee;}.cls-2,.cls-4,.cls-7{fill:none;}.cls-2{stroke:#674186;stroke-miterlimit:10;}.cls-2,.cls-7{stroke-width:4px;}.cls-3{fill:#64c0c1;}.cls-4{stroke:#fff;stroke-width:14px;}.cls-4,.cls-5,.cls-6,.cls-7{stroke-linecap:round;stroke-linejoin:round;}.cls-5{fill:#674286;}.cls-5,.cls-6{stroke:#674286;stroke-width:4px;}.cls-6{fill:#fff;}.cls-7{stroke:#b84994;}</style></defs><title>MSM-iconLG-no-results</title><g id="no_results" data-name="no results"><path class="cls-1" d="M515.65,183.16c72.93,119.56,35.13,275.61-84.42,348.56S155.61,566.85,82.67,447.29s28.4-191.14,84.42-348.55C209.44-20.24,442.71,63.6,515.65,183.16Z"/><path class="cls-2" d="M51.52,466.29c-28.15-46.14-36.73-89.92-27-137.78,8.21-40.41,28.09-77.33,51.1-120.08,5.91-11,12-22.28,18.11-34.11"/><circle class="cls-3" cx="478.21" cy="476.29" r="79"/><line class="cls-4" x1="500.75" y1="453.75" x2="455.67" y2="498.83"/><line class="cls-4" x1="455.67" y1="453.75" x2="500.75" y2="498.83"/><rect class="cls-5" x="268.01" y="308.25" width="55.24" height="35.98" transform="translate(-144.45 339.07) rotate(-49.49)"/><circle class="cls-6" cx="373.13" cy="235.54" r="97.67"/><circle class="cls-3" cx="373.13" cy="235.54" r="78.8"/><rect class="cls-6" x="199.26" y="313.4" width="52.53" height="189.79" rx="26.27" transform="translate(131.75 865.21) rotate(-139.49)"/><line class="cls-7" x1="194.88" y1="462.82" x2="244.82" y2="404.37"/></g></svg>